<svg xmlns="http://www.w3.org/2000/svg" xmlns:xlink="http://www.w3.org/1999/xlink" viewBox="0 0 111.69 28" overflow="visible"><path d="M 41.378 5.004 C 42.493 5.004 43.457 5.224 44.268 5.663 C 45.067 6.059 45.729 6.686 46.168 7.463 C 46.625 8.223 46.853 9.11 46.853 10.124 C 46.853 11.138 46.625 12.034 46.169 12.811 C 45.729 13.571 45.096 14.171 44.268 14.611 C 43.457 15.033 42.493 15.244 41.378 15.244 L 36.081 15.244 L 36.081 23 L 33.926 23 L 33.926 5.004 Z M 40.998 13.292 C 42.148 13.292 43.043 13.03 43.685 12.507 C 44.327 11.966 44.648 11.172 44.648 10.124 C 44.648 9.076 44.327 8.291 43.685 7.767 C 43.043 7.226 42.147 6.956 40.998 6.956 L 36.081 6.956 L 36.081 13.292 Z M 48.282 5.004 L 50.259 5.004 L 50.259 7.539 L 48.282 7.539 Z M 48.282 10.074 L 50.259 10.074 L 50.259 23 L 48.282 23 L 48.282 10.073 Z M 58.094 23.304 C 56.844 23.304 55.754 23.017 54.824 22.442 C 53.898 21.854 53.152 21.021 52.67 20.035 C 52.163 19.004 51.91 17.838 51.91 16.537 C 51.91 15.252 52.163 14.103 52.67 13.09 C 53.148 12.108 53.895 11.281 54.824 10.707 C 55.754 10.116 56.844 9.82 58.094 9.82 C 59.344 9.82 60.434 10.116 61.364 10.707 C 62.293 11.281 63.04 12.107 63.518 13.089 C 64.025 14.103 64.278 15.252 64.278 16.537 C 64.278 17.837 64.025 19.004 63.518 20.035 C 63.036 21.021 62.29 21.854 61.363 22.442 C 60.434 23.017 59.344 23.304 58.093 23.304 Z M 58.094 21.657 C 58.955 21.657 59.682 21.437 60.274 20.997 C 60.882 20.558 61.346 19.95 61.667 19.173 C 61.989 18.395 62.149 17.517 62.149 16.537 C 62.149 15.557 61.989 14.687 61.667 13.926 C 61.347 13.166 60.882 12.566 60.273 12.126 C 59.682 11.687 58.955 11.467 58.093 11.467 C 57.249 11.467 56.523 11.687 55.913 12.127 C 55.306 12.566 54.841 13.165 54.52 13.926 C 54.199 14.686 54.038 15.556 54.038 16.536 C 54.038 17.516 54.198 18.396 54.52 19.173 C 54.84 19.95 55.305 20.558 55.914 20.998 C 56.522 21.437 57.249 21.657 58.094 21.657 Z M 65.92 10.073 L 67.897 10.073 L 67.897 12.253 C 68.217 11.628 68.707 11.07 69.367 10.58 C 70.043 10.073 70.972 9.82 72.155 9.82 C 73.557 9.82 74.614 10.192 75.323 10.935 C 76.05 11.678 76.413 12.684 76.413 13.951 L 76.413 23 L 74.436 23 L 74.436 14.28 C 74.436 13.385 74.208 12.692 73.752 12.202 C 73.295 11.712 72.535 11.467 71.471 11.467 C 70.491 11.467 69.645 11.822 68.936 12.532 C 68.243 13.242 67.896 14.222 67.896 15.472 L 67.896 23 L 65.92 23 Z M 77.963 16.537 C 77.963 15.252 78.216 14.103 78.723 13.09 C 79.201 12.108 79.948 11.281 80.877 10.707 C 81.807 10.116 82.905 9.82 84.173 9.82 C 85.49 9.82 86.614 10.14 87.543 10.783 C 88.473 11.425 89.174 12.287 89.647 13.368 C 90.137 14.45 90.349 15.641 90.281 16.942 L 80.091 16.942 C 80.142 18.345 80.523 19.485 81.232 20.364 C 81.959 21.226 82.972 21.657 84.274 21.657 C 85.304 21.657 86.107 21.387 86.682 20.846 C 87.253 20.31 87.681 19.639 87.924 18.894 L 90.027 18.894 C 89.656 20.178 88.98 21.234 88 22.062 C 87.02 22.89 85.778 23.304 84.274 23.304 C 83.007 23.304 81.9 23.017 80.954 22.442 C 80.013 21.856 79.25 21.024 78.748 20.035 C 78.225 19.004 77.963 17.838 77.963 16.537 Z M 88.152 15.371 C 87.966 14.205 87.535 13.267 86.859 12.557 C 86.183 11.831 85.288 11.467 84.173 11.467 C 83.04 11.467 82.136 11.822 81.46 12.532 C 80.785 13.242 80.354 14.188 80.168 15.371 Z M 91.113 16.537 C 91.113 15.252 91.367 14.103 91.873 13.09 C 92.38 12.076 93.098 11.281 94.028 10.707 C 94.958 10.116 96.056 9.82 97.323 9.82 C 98.641 9.82 99.765 10.14 100.694 10.783 C 101.623 11.425 102.325 12.287 102.798 13.368 C 103.288 14.45 103.499 15.641 103.431 16.942 L 93.242 16.942 C 93.292 18.345 93.673 19.485 94.382 20.364 C 95.109 21.226 96.123 21.657 97.424 21.657 C 98.455 21.657 99.258 21.387 99.832 20.846 C 100.404 20.31 100.831 19.639 101.074 18.894 L 103.178 18.894 C 102.806 20.178 102.13 21.234 101.15 22.062 C 100.17 22.89 98.928 23.304 97.424 23.304 C 96.157 23.304 95.05 23.017 94.104 22.442 C 93.163 21.856 92.4 21.024 91.899 20.035 C 91.375 19.004 91.113 17.838 91.113 16.537 Z M 101.302 15.371 C 101.117 14.205 100.686 13.267 100.01 12.557 C 99.334 11.831 98.438 11.467 97.323 11.467 C 96.191 11.467 95.287 11.822 94.611 12.532 C 93.935 13.242 93.504 14.188 93.318 15.371 Z M 110.803 10.073 L 111.69 10.073 L 111.69 11.974 L 110.321 11.974 C 109.223 11.974 108.395 12.236 107.837 12.76 C 107.28 13.284 107.009 14.247 107.026 15.65 L 107.026 23 L 105.049 23 L 105.049 10.073 L 106.976 10.073 L 106.976 12.481 C 107.262 11.79 107.736 11.193 108.344 10.758 C 108.97 10.301 109.789 10.073 110.803 10.073 Z M 14.981 11.89 L 21.603 6.152 L 21.848 6.397 L 16.11 13.017 L 28 13.797 L 28 14.204 L 16.11 14.981 L 21.848 21.603 L 21.603 21.848 L 14.981 16.11 L 14.204 28 L 13.796 28 L 13.018 16.11 L 6.397 21.848 L 6.151 21.603 L 11.889 14.982 L 0 14.204 L 0 13.796 L 11.89 13.017 L 6.152 6.397 L 6.397 6.152 L 13.017 11.89 L 13.797 0 L 14.204 0 Z" fill="rgb(12, 6, 8)"></path></svg>
